/* XPM */
static char *b8523bc7de48495cbe324bb6332195933RZDWcpLCjiRjaQa[] = {
/* columns rows colors chars-per-pixel */
"32 32 38 1 ",
"  c #50BCBA",
". c #55BEBC",
"X c #5DC1BF",
"o c #5EC2C0",
"O c #6FC9C7",
"+ c #70C9C7",
"@ c #76CBCA",
"# c #77CCCA",
"$ c #79CCCB",
"% c #7BCDCC",
"& c #8FD5D4",
"* c #9AD9D8",
"= c #9CDAD8",
"- c #A2DCDB",
"; c #A3DDDC",
": c #A7DDDC",
"> c #AADFDF",
", c #ABE1E0",
"< c #ACE1E0",
"1 c #B1E2E1",
"2 c #B7E4E3",
"3 c #B9E5E4",
"4 c #C6EAE9",
"5 c #CDEDEC",
"6 c #D4EFEF",
"7 c #D7F0EF",
"8 c #D8F0F0",
"9 c #DFF3F3",
"0 c #E0F3F3",
"q c #E0F4F3",
"w c #E1F4F4",
"e c #E8F7F7",
"r c #EEF9F8",
"t c #F0FAFA",
"y c #F4FBFB",
"u c #F6FCFC",
"i c #F8FDFD",
"p c #FEFFFF",
/* pixels */
"                                ",
"                                ",
"                                ",
"                                ",
"          %wpppi1   rppi21ppppt ",
"         $wpppi1    tpi3o:ppppy ",
"        $qpppi1     ti2X ;ppppy ",
"       #wpppi1      r3o  -ppppy ",
"      #0pppi1       ,o   -ppppy ",
"     $9pppi1        .   o4pppp6 ",
"    @9pppi1            o3ippp8+ ",
"   @9pppi1            o3ippp8O  ",
"  @9pppi1            o3ippp8+   ",
" @9pppi1            o3ippp7O    ",
" 9pppp5             3ippp8O     ",
" pppppyrrrrrrrrrr   rpppp>   .& ",
" pppppppppppppppp   tpppp:  .=e ",
" pppppppppppppppp   tpppp: .*ty ",
" pppppppppppppppp   tpppp:.*tpy ",
"            ipppp   tpppp<*tppy ",
"            ypppp               ",
"            ypppp               ",
"            ypppp               ",
"            ypppp               ",
"            ruuuu               ",
"                                ",
"                    ppp p  pp   ",
"                    p:  p p  p  ",
"                    p p p  pp   ",
"                                ",
"                                ",
"                                "
};
