/* XPM */
static char *d595564d0f1f4f8cec519762b9eb54bfYLYcjF3eis1qPKWY[] = {
/* columns rows colors chars-per-pixel */
"32 32 236 2 ",
"   c #280F22",
".  c #3C232C",
"X  c #58120E",
"o  c #5C0000",
"O  c #670A05",
"+  c #7B0703",
"@  c #68110D",
"#  c #741B18",
"$  c #48242D",
"%  c #4C2B34",
"&  c #462A33",
"*  c #512A33",
"=  c #592D3B",
"-  c #53333C",
";  c #5B333B",
":  c #5B393F",
">  c #57282F",
",  c #63343C",
"<  c #6C3D3A",
"1  c #712E2D",
"2  c #5B3741",
"3  c #6B3D44",
"4  c #643943",
"5  c #7A3E48",
"6  c #574249",
"7  c #6B454A",
"8  c #73434C",
"9  c #7A454C",
"0  c #7B4B4D",
"q  c #734648",
"w  c #644D53",
"e  c #7D4C53",
"r  c #754A51",
"t  c #7B5659",
"y  c #6B5253",
"u  c #7C4769",
"i  c #7D6D72",
"p  c #7D676A",
"a  c #830C03",
"s  c #880804",
"d  c #940907",
"f  c #87130A",
"g  c #9D1D1A",
"h  c #971615",
"j  c #90110B",
"k  c #A40605",
"l  c #A2120D",
"z  c #AD1818",
"x  c #BA1714",
"c  c #B90504",
"v  c #B4201D",
"b  c #AE1E20",
"n  c #953C3B",
"m  c #8E322D",
"M  c #A52B26",
"N  c #AF312D",
"B  c #C70605",
"V  c #C61B15",
"C  c #D71916",
"Z  c #D50C0A",
"A  c #E90A09",
"S  c #F6130C",
"D  c #E81914",
"F  c #F31D1A",
"G  c #F41813",
"H  c #EC150F",
"J  c #D2261E",
"K  c #C3241F",
"L  c #EB221B",
"P  c #E7261C",
"I  c #F3231C",
"U  c #F42B1E",
"Y  c #FA261C",
"T  c #C92723",
"R  c #D72A25",
"E  c #CC342D",
"W  c #D5332C",
"Q  c #DB342C",
"!  c #C53A33",
"~  c #D03334",
"^  c #E32B26",
"/  c #F82A22",
"(  c #E13D3D",
")  c #B0403F",
"_  c #C74239",
"`  c #CD4439",
"'  c #DF4036",
"]  c #E8443C",
"[  c #8E3C41",
"{  c #83484A",
"}  c #834C53",
"|  c #894D54",
" . c #974F55",
".. c #825356",
"X. c #85545A",
"o. c #8B545B",
"O. c #8A5A58",
"+. c #955757",
"@. c #934E48",
"#. c #B44846",
"$. c #AE5A4A",
"%. c #B75552",
"&. c #87625F",
"*. c #B6644C",
"=. c #B5665D",
"-. c #A96759",
";. c #8B5D62",
":. c #975C63",
">. c #8A5A72",
",. c #886566",
"<. c #956266",
"1. c #9B656B",
"2. c #9C6B6C",
"3. c #986568",
"4. c #94736D",
"5. c #9B7A7C",
"6. c #987275",
"7. c #917777",
"8. c #A3656A",
"9. c #A46B6D",
"0. c #AA6B66",
"q. c #BA6867",
"w. c #B7766C",
"e. c #A76C72",
"r. c #AC7373",
"t. c #A3797A",
"y. c #A77978",
"u. c #BC7D7C",
"i. c #B57678",
"p. c #CA5858",
"a. c #D34F49",
"s. c #E1544C",
"d. c #D87855",
"f. c #C96C51",
"g. c #E07B53",
"h. c #C57C7C",
"j. c #C37779",
"k. c #DB7E7A",
"l. c #CB6F66",
"z. c #AA847B",
"x. c #BC8878",
"c. c #E88255",
"v. c #C88167",
"b. c #CA857B",
"n. c #DB8673",
"m. c #EE8767",
"M. c #985F84",
"N. c #9C7884",
"B. c #AB7E82",
"V. c #95908E",
"C. c #A78986",
"Z. c #B68887",
"A. c #A69394",
"S. c #B79897",
"D. c #B1958A",
"F. c #BBA39A",
"G. c #ABAAA3",
"H. c #B7A9AD",
"J. c #C58382",
"K. c #CD8584",
"L. c #CF8A86",
"P. c #C68D8D",
"I. c #C98C88",
"U. c #D28C8A",
"Y. c #D18684",
"T. c #CA928F",
"R. c #C89689",
"E. c #D4958A",
"W. c #C89995",
"Q. c #DD9C91",
"!. c #D59794",
"~. c #E39D97",
"^. c #E7948A",
"/. c #C9A89C",
"(. c #D8A799",
"). c #E3A79D",
"_. c #F0A99A",
"`. c #CF9FA4",
"'. c #C7A8A9",
"]. c #D8A8A6",
"[. c #C9B3AB",
"{. c #D6B7A8",
"}. c #C6AAB0",
"|. c #C9B9B6",
" X c #D7B8B5",
".X c #EAAAA2",
"XX c #F4AAA2",
"oX c #EFBDB2",
"OX c #CCC4BD",
"+X c #D7C6BC",
"@X c #E8C8B8",
"#X c #EAC8B5",
"$X c #D0BDC4",
"%X c #CDC2C5",
"&X c #D9C7C7",
"*X c #CCC5D4",
"=X c #CFCCDA",
"-X c #D4CAD4",
";X c #D2CDDC",
":X c #D7C9D4",
">X c #DED3D3",
",X c #DCD3D9",
"<X c #E7C3C4",
"1X c #E3CCCA",
"2X c #E9C9CA",
"3X c #EBD4C9",
"4X c #F3DBCD",
"5X c #F8D9C4",
"6X c #ECCFD1",
"7X c #E5CFD4",
"8X c #E3D4D4",
"9X c #EBD4D4",
"0X c #E5D9D6",
"qX c #ECD7D9",
"wX c #E6DBDB",
"eX c #ECDCDB",
"rX c #E5D6DA",
"tX c #F1DDDB",
"yX c #F6DCD0",
"uX c #ECE1DD",
"iX c #E5E0DD",
"pX c #F6E2DB",
"aX c #DAD7E2",
"sX c #EADEE0",
"dX c #E6DBE1",
"fX c #EDE3E3",
"gX c #EBE7E8",
"hX c #F3E4E3",
"jX c #FAE6E4",
"kX c #F4EAEA",
"lX c #FBEDEB",
"zX c #F6E9E5",
"xX c #F9F1EE",
"cX c #F7F1EF",
"vX c #F9F5F4",
"bX c #F1EFF2",
/* pixels */
"hXfXsXwX;X*Xp.n |.xXlXxXzXqX>X>XuXxXuX^ Z n ,Xk.R Q.cXtXtXeXqX2X",
"qXfXfX-X=X}.x + }.cX1X XW.T.P.P.W. X].F z =.( Z A ~ iXhXhXfXqX7X",
"6XqXkX@.6.`.k n |.P.K.h.b.U.L.Y.Y.K.l.D g z k d d j &XkXfXfXeX9X",
"<XqX8XV g j.k r.I.Y.U.U.K.h.Y.J.J.J.9.z [ 1.{ '. X&XfXsXsXeXqX6X",
"<X9XgXk.B z q.U.Y.U.L.K.U.T.u.J.B.r.<.m  .:.} t.xXxXsXeXeXqX2X<X",
"6XqXhXgX~.l.T.K.b.b.J.J.u.J.W.y.i.9.O.{ +.| e 1 %.xXhXeXeX9X2X2X",
"qXqXeXlX>XZ.!.J.u.u.u.9.2.+.e.y.<.<.X.7 e } o.e b q.gXjXqX9X2X6X",
"qXqXeXkXD.Z.!.r.r.P.u.} z.Z.q 1.<.o...3 4 o.8.e +.B { qXzX6X6XqX",
"qXqXfXzX5.i.P.1.r.Z.<.r y.5X,.3.e.:.e : * o.i. .,.p.c 1 ].9XlXzX",
"qXeXfXkX5.e.i.;.e.9.;...D.3X#XC.z.o.r t & | J.8.} S.I c d M w. X",
"9XeXhXvXt.:.e.e } e y.&.{.@XS.>.4.r 8 t . O.I.i.5 C.^.A A x l h ",
"qXtXvXXXv ;.8.9 , r {.t.5X{.u M.{...8 2 . <.I.i.| 0 fX.XQ A C #.",
"tXcXoX^ # ; :.8 % y 5.{.5X4X#Xb.x.z.4 - 6 o.U.i.| , '.vXwXK.W C ",
"lX<Xa.i.> e X.= & C.N.@X4X4X@X#X X/.$ 7.i 7 !.i.| * 6.zXjXkX&XK.",
"9Xp.1Xn 3.3., ; & ,.(.#X3X4X4X3XpXD.O.[.V.- J.9.8.+.@.&XjX9X2X2X",
"j.rX].g  XX.* 2 $ i &X+XyX4X4X4X@X4.F.&XOX7 u.).).m.f.S.hX>X:X&X",
"T.vX#.%.wX0 ; % $ 6 [./.F. X3X#XD.|.uX XL.L.Q.l.l.m.$.,.rX*X*X*X",
" XbXq.#.,X9 ; 9 % q @.b.w.b.OX/.+XOXL.n.E.Q.E./.!.d.f.*.}.;X*X*X",
" XbX`.g  XX., 9 e b.n.a.f.b.x.G.R._ L Q (.XX].uX0Xv.d.O.C.=X*X*X",
"'.sX,XM q.,., 0 Q.oXs.S L _ S.p.D I U ] .X).1XeXfX/.*.+.O.H.;X*X",
"h.aXaXZ.h ..3 ...X~.D Y Y L ! x R U U ` E.Q.eXuXkX<Xg.c.O.6.*X,X",
"p.;X*X-X .3 3 9 2.l.S I x v C J ^ U L $.Q.{.fXeXzX{.f.0.t 2.S.fX",
"T $X*X;XA., - } R.s.G V g V v / U U V w.(.0XuXeXfXR.f.=.N.6.y.%X",
"q.}.;X-X6.} - 9 I.] I / / P M U U P m Q.W.0XuXuXwXv.g.*.5.%X2.t.",
"fX,XdX&Xo.1.2 5 t.N I / I T E V P l -.Q.W.%XuXuX1Xf.< X.B.>X$X1.",
"eXsXkX}.} <.4 4 S.5.l ^ x R ^ V f m ~.Q.F.H.OXzX[.< - X.S.kXkXwX",
",XrXhX5.q X.2 = S.iX,.# x Q W F j $._.b.A.0X|.uXA.  2 ;.Z.Z.O.4.",
"-X,X8Xt X.7 - ; '.uXV.h C W E F Z M (.w.-.&XeXqX|.w > # + + O o ",
"-XdX|.0 7 & : 4 1XiXn x L W ! G D V I.S.-. XeX9X9XwXn s j j f f ",
"-XsX5.<.,.* * p lX<XK T F W _ G L H %.|.7.[.pX9XeX1Xm + @ @ + a ",
"8X&Xe W.@X,.w 7XxXK.V R I Q ` G F Y T A.V.|.tX9XeX+X# @ X X a a ",
"eXA... X@X/.|.8XG.) J R I ' a.H F / ^ +.0 C.eX9XqX0X1 O @ + a a "
};
