/* XPM */
static char *b9a3982305c44b739f2fadba5fcb6383f3W9FekGHUxsUASJ[] = {
/* columns rows colors chars-per-pixel */
"32 32 14 1 ",
"  c #3C3B15",
". c #522710",
"X c #4A3A13",
"o c #66390F",
"O c #452226",
"+ c #78441A",
"@ c #8F4C1F",
"# c #825734",
"$ c #916A3B",
"% c #948465",
"& c #A89C80",
"* c #BDB193",
"= c #C3C1A2",
"- c #D4C8AB",
/* pixels */
"O+++##$$$$$$$$$$$$$$$$$$###++++O",
"+OOOOOOOOOOOOOOOOOOOOOOOOOOOOOO+",
"+O%&&&&&&&&&&&&&&&&&&&&&&&&&&&O+",
"+O%**=*=*=*=*=*=*=*=*=*=*=*=*=O+",
"+O%*=*=*=*=*=*=*=*=*=*=*=*=*=*O+",
"+O%=*=*=*=*=*=*=*=*=*=*=*=*=*=O+",
"+O%==========================-O+",
"+O%=-=-=-=-=-=-=-=-=-=-=-=-=-=O+",
"+O%-=---=---=---=---=---=---=-O+",
"+O%---=---=---=---=---=---=---O+",
"+O%---------------------------O+",
"+O%---------------------------O+",
"+O%---------------------------O+",
"+O%---------------------------O+",
"+O%---------------------------O+",
"+O%---------------------------O+",
"+O..XXXXooooooooooooooooXXXX..O+",
"+O+#####+.#O+######+.#O+#####+O+",
"+OO.......#OO........#OO......O+",
"+O       .#O        .#O       O+",
"+O ++++++.#O +++++++.#O ++++++O+",
"+O @+@+++.#O @+@+@+@.#O +@+@++O+",
"+O @+@+@+.#O @++++++.#O +@+++@O+",
"+O ++++@+.#O ++@+@+@.#O +++@++O+",
"+O @+++++.#O ++++++@.#O +++@+@O+",
"+O ++@+++.#O @+@++++.#O +@+@+@O+",
"+O @+@+@+.#O ++@+@+@.#O ++++++O+",
"+O ++++++.#O @+++@++.#O +++@+@O+",
"+O @+@+@+.+O @+@+@+@.+O +@+++@O+",
"+O @+++@+.+O @+@+@+@.+O +@+@+@O+",
"+OOOOOOOOOOOOOOOOOOOOOOOOOOOOOO+",
"O#++++++++++++++++++++++++++++#O"
};
