/* XPM */
static char *_ce9660a52cc4548c3bb64e0fe3b7dd95yRMmdhNf3fQ9wbN[] = {
/* columns rows colors chars-per-pixel */
"32 32 12 1 ",
"  c #36160A",
". c #3D2C11",
"X c #4D381C",
"o c #5E4522",
"O c #635424",
"+ c #70592B",
"@ c #78652B",
"# c #825734",
"$ c #B88432",
"% c #BA9961",
"& c #E5BD77",
"* c #EBCB7A",
/* pixels */
"@@@@@@@@@@@+@+++o+ooooooooooooo$",
"                               @",
" %%%%%%%%%%%%%%%%%%%%%%%%%%%%%%@",
" &&&&&&&&&&&&&&&&&&&&&&&&&&&&&&@",
" &&&&&&&&&&&&&&&&&&&&&&&&&&&&&&@",
"@++++@@@@@@@@@@@@@@@@@@@@@@+++@@",
"                               @",
" %%%%%%%%%%%%%%%%%%%%%%%%%%%%%%@",
" &&&&&&&&&&&&&&&&&&&&&&&&&&&&&&@",
" &*&*&*&*&*&*&*&*&*&*&*&*&*&*&*@",
" *&*&*&*&*&*&*&*&*&*&*&*&*&*&*&@",
" &***&***&***&***&***&***&***&*+",
" **&***&***&***&***&***&***&***@",
" ******************************+",
" ******************************+",
" ******************************o",
" ******************************o",
" &&&&&&&&&&&&&&&&&&&&&&&&&&&&&&o",
" %%%%%%%%%%%%%%%%%%%%%%%%%%%%%%o",
"###############################@",
"oooooooooooooooooooooooooooooooo",
"oooooooooooooooooooooooooooooooo",
"                               o",
".XX...XXXX...XXXX...XXXX...XXXXo",
"XooX.OXooXX.OXooXX.oXooXX.OXoooo",
"XooX.@ooooX.@ooooX.@ooooX.@ooooo",
"XooX.@ooooX.@ooooXX@ooooX.@ooooo",
"XooXX@ooooXX@ooooX.@ooooXX@ooooo",
"XooX.OooooX.OooooXXOooooX.Oooooo",
"###############################o",
"oooooooooooooooooooooooooooooooo",
"oooooooooooooooooooooooooooooooo"
};
