/* XPM */
static char *images__1_1713907696[] = {
/* columns rows colors chars-per-pixel */
"32 32 238 2 ",
"   c #020103",
".  c #0B0102",
"X  c #0C0D02",
"o  c #04030D",
"O  c #090B0D",
"+  c #0E060E",
"@  c #160C03",
"#  c #160C0E",
"$  c #0F1209",
"%  c #191507",
"&  c #0C0C13",
"*  c #0A0A18",
"=  c #130C14",
"-  c #150B17",
";  c #0D1316",
":  c #141316",
">  c #1B1B16",
",  c #14141C",
"<  c #1B141D",
"1  c #1B1A1A",
"2  c #271C05",
"3  c #241915",
"4  c #220C01",
"5  c #292414",
"6  c #392D0F",
"7  c #090A24",
"8  c #130B25",
"9  c #1B0C23",
"0  c #0A1222",
"q  c #0B1229",
"w  c #131423",
"e  c #1A1525",
"r  c #151B24",
"t  c #1D1A23",
"y  c #15152C",
"u  c #141B2B",
"i  c #1C1D2C",
"p  c #1A162C",
"a  c #151534",
"s  c #221C2D",
"d  c #251A24",
"f  c #241D37",
"g  c #1C212B",
"h  c #262529",
"j  c #372A29",
"k  c #232437",
"l  c #25293B",
"z  c #282838",
"x  c #332B36",
"c  c #363237",
"v  c #27303F",
"b  c #463417",
"n  c #4A3A21",
"m  c #463838",
"M  c #482133",
"N  c #4C4633",
"B  c #544832",
"V  c #5F5333",
"C  c #4D482D",
"Z  c #725F3C",
"A  c #6B5434",
"S  c #382A45",
"D  c #2C3347",
"F  c #393749",
"G  c #372B52",
"H  c #393755",
"J  c #2E2E49",
"K  c #453D46",
"L  c #593549",
"P  c #443955",
"I  c #593857",
"U  c #482C4C",
"Y  c #62344A",
"T  c #67364D",
"R  c #653A55",
"E  c #723755",
"W  c #443E64",
"Q  c #513F71",
"!  c #3F4052",
"~  c #3C404B",
"^  c #3E4265",
"/  c #484853",
"(  c #574B57",
")  c #4E505F",
"_  c #4E4C52",
"`  c #66584C",
"'  c #795A4D",
"]  c #6A4659",
"[  c #74425B",
"{  c #655553",
"}  c #78685B",
"|  c #726C54",
" . c #4C4B6C",
".. c #494465",
"X. c #534C63",
"o. c #594668",
"O. c #585568",
"+. c #4C4B74",
"@. c #4A477C",
"#. c #544A77",
"$. c #595777",
"%. c #4C5461",
"&. c #645C63",
"*. c #735264",
"=. c #6E5371",
"-. c #5E616A",
";. c #676567",
":. c #6A6975",
">. c #746A74",
",. c #787377",
"<. c #766A67",
"1. c #88793E",
"2. c #8D7B4E",
"3. c #887655",
"4. c #857873",
"5. c #917172",
"6. c #CBAF3A",
"7. c #CCB33D",
"8. c #D2B43E",
"9. c #D8B83F",
"0. c #D6AE3F",
"q. c #A99859",
"w. c #8B8675",
"e. c #998875",
"r. c #8F876C",
"t. c #A28D6B",
"y. c #AB996A",
"u. c #AF9B7A",
"i. c #BBA66A",
"p. c #AFA27F",
"a. c #908452",
"s. c #CFAF40",
"d. c #D4AF4A",
"f. c #CDB543",
"g. c #CDB942",
"h. c #CEB34B",
"j. c #C6BA40",
"k. c #D3B444",
"l. c #DAB246",
"z. c #D3B944",
"x. c #DBBA46",
"c. c #D4B44B",
"v. c #DBB44B",
"b. c #D4BA4C",
"n. c #DABA4B",
"m. c #D2AE57",
"M. c #CEB55B",
"N. c #CDB452",
"B. c #D4B453",
"V. c #D5BC5B",
"C. c #D8B758",
"Z. c #C6A45C",
"A. c #C4AA6C",
"S. c #C9B464",
"D. c #CDBB6C",
"F. c #D9BE65",
"G. c #D3BD6B",
"H. c #D9BD6B",
"J. c #D8B768",
"K. c #C8A67A",
"L. c #CAB777",
"P. c #D6BC71",
"I. c #D7BE76",
"U. c #D0C047",
"Y. c #D6C26C",
"T. c #DCC261",
"R. c #D4C272",
"E. c #DAC272",
"W. c #D7C37C",
"Q. c #E0C870",
"!. c #5B5482",
"~. c #5A5B85",
"^. c #535781",
"/. c #594F81",
"(. c #625686",
"). c #7A7984",
"_. c #6A638A",
"`. c #95788B",
"'. c #836A87",
"]. c #8C878E",
"[. c #948C8A",
"{. c #8C8998",
"}. c #978C98",
"|. c #9B949C",
" X c #9C958D",
".X c #A18597",
"XX c #A7969B",
"oX c #B7989D",
"OX c #B7AA93",
"+X c #B7A98C",
"@X c #9995A3",
"#X c #A99AA7",
"$X c #A4A6AB",
"%X c #B7A6A9",
"&X c #B3AAB5",
"*X c #BBB5B6",
"=X c #AFA3B1",
"-X c #C8B389",
";X c #C8B399",
":X c #C6A786",
">X c #C7A9AD",
",X c #DAB7AE",
"<X c #C5ACB4",
"1X c #CCB2B4",
"2X c #CDB6BC",
"3X c #C4B9B9",
"4X c #D9B7B8",
"5X c #CDACAF",
"6X c #D6C395",
"7X c #C8BAC6",
"8X c #CAC3C7",
"9X c #D7C6C9",
"0X c #D8D5D5",
"qX c #D5CAD0",
"wX c #E8C8CC",
"eX c #EACDD6",
"rX c #ECD3D9",
"tX c #E6D8D7",
"yX c #F6D9DA",
"uX c #E9D0CC",
"iX c #F4E3DE",
"pX c #D5D4E2",
"aX c #F1DCE8",
"sX c #EBE4E5",
"dX c #FEE4E6",
"fX c #FCEBE5",
"gX c #FEECEC",
"hX c #F7E6E9",
"jX c #FFF2EC",
"kX c #F3EDF2",
"lX c #FCEDF3",
"zX c #FFEAF8",
"xX c #FEF2F2",
"cX c #F1F2FC",
"vX c #FEF4FD",
"bX c #FEFAFF",
"nX c #F8F5F7",
"mX c #E8E8F0",
/* pixels */
"g.g.7.g.C.m.J.i.b 3.I.D.6X-Xu.r.| | w.OX+X' ' K.m.h.k.k.k.8.x.8.",
"g.z.f.c.c.C.Z.:Xe.. 2.y.Z b 2 % X X $ 5 3 4 ,X:XS.N.c.b.k.x.7.z.",
"k.z.c.c.v.C.J.:X4.+ % # @ % > > g > ; > # 3 oX;Xi.D.M.h.k.v.k.z.",
"f.n.k.c.v.m.K.OXj w e e s p , r > r r r 3 @ M >X6 1.H.B.n.f.n.h.",
"x.8.l.n.d.F.y.{ x * f y u y r u u u p p s - d 4.@ n I.m.f.k.k.c.",
"8.8.v.c.C.i.2 # d r r w 7 y u 0 q u a 7 p 9 < < > % q.B.k.x.g.h.",
"z.k.c.M.i.2 @ < t = < S %.l k k l l / F S i , g r % q.T.8.8.k.b.",
"z.b.c.P.n > h / x m K &.@Xp %.:.l D :.{.{.l ~ / q $ q.V.8.z.k.g.",
"k.c.N.P.n { / l h qX,.< >.F / , h ~ c :.:.r / %.D j q.T.k.8.x.7.",
"g.b.h.H.t.3 r O :.sX3Xj - e ]._ o & ; > r r r u u > q.U.f.k.7.b.",
"8.z.k.h.E.2.@ < ).].[.,.k e j 4.]._ g r O O f 0 ; h i.V.b.c.g.z.",
"x.8.k.c.g.6X3.@ |.mXnXcX7X8XqX9XvXlX&X8X$X-.- p ; 5 R.N.v.v.b.h.",
"8.9.x.0.k.H.u.3 0XbXcX$.P aXnXjXhXkX&.K pXbX{.* h 2 G.V.d.c.c.c.",
"k.n.7.x.k.F.2.m kXbXpXf 9 |.xXhXxXqXs , $XbXbX{ #Xe.M.k.k.v.c.c.",
"C.h.c.f.7.E.A m bXcXcX&X.XzXlXfXfXxX=X}.kXnXbX3XXX6XM.k.k.8.c.v.",
"v.d.n.c.f.Y.Z m nXkXbXvXvXhXfXjXgXdXvXvXbXxXxX%XOX;XM.9.8.x.k.c.",
"l.v.c.c.f.Y.V j yX5X>X7X<XiXjXfXgXfX4X<X2X<XrX[.<.V Y.0.l.l.k.n.",
"l.k.c.b.7.F.B @ 5XyXwXeXsXjXfXfXfXfXgXwXwXyX8X3   C E.c.v.v.k.7.",
"7.g.g.g.g.E.B . ] yXeXrXyXjXgXjXjXfXiXyXeXyX<.. & N R.h.B.c.z.z.",
"j.U.7.k.c.P.N + # XXdXgXlXlXdXdXgXgXfXjXgXXX= : ; C R.U.c.B.f.j.",
"g.z.z.x.k.P.N * + : { 8XkXlXxXlXlXgXfX7X&.+ + < & C E.k.7.z.g.U.",
"9.7.9.k.k.W.N o , ;   : [.%X1X9X1X%X>.  o : : ; = B H.x.z.8.7.k.",
"l.9.k.c.h.S.6 O ; ; , > *XuX>X>X1XtX[.$ $ O : = + n G.6.8.8.n.x.",
"N.F.H.L.Y.i.3 c & , o ,.tXxXgXdXgXgXqX;.  : O c z 5 L.Y.Y.S.c.v.",
"-X3.} w.+Xr.# ( 8 * x eXpX0XhXjXsXqXmX8X9 9 o ).O.O w.w.} t.H.d.",
"XXc X. .( c s H H ..#XvXbXiX3X*X8XlXvXvX).W J o.D ; H -...m A.J.",
":./ $./.&.s k H ..(.'.`.}.7X*X#X9X<X`..X=.=.P W H q ^ $.#./ 3.I.",
"-. .^.^.O.r D H H Q I R L { }.qX`.I L Y R Q P W ^ 7 H ~.+.( | K.",
"@././.~.+.7 ! +.G G R E [ T R 5.Y [ [ [ I I G #./.a f $.^ O.` -X",
"Q /.^ ~.^ 7 +.(.Q U L T T E R R Y [ T [ L U #.#.~.G 9 X. .O.{ OX",
"@.#.+.~.J q #.(.#.x *.4X`.L <.eX*.M 5.4X1X( $.~.^.^ 7 S $.O.{ ;X",
"Q (.@.$.k f (.(.W U 7XrXrX=XwXyX7XoX4X,XuX=XH ~.^.+.p k  .$.{ OX"
};
